#!OML:ASF H:\GeneralSubjects\Female5\Project 1\Capture day 1\Session 1\Female5.ASF
:FULLY-SPECIFIED
:DEGREES
911
root 5.98742 16.221 -0.390296 131.402 -84.5312 -121.092
lowerback 8.00215 1.47373 0.968405
upperback -10.3499 2.20553 2.62627
thorax -16.1725 0.993586 1.98326
lowerneck -13.9836 -3.29158 -3.67656
upperneck 24.8374 -4.58984 1.56898
head 10.3708 -2.4433 0.54851
rclavicle 1.38155e-014 -3.97569e-016
rhumerus 1.06113 28.2012 -23.5439
rradius 38.2605
rwrist -3.82456
rhand -34.8986 -14.3732
rfingers 7.12502
rthumb -8.04689 -44.2
lclavicle 1.38155e-014 -3.97569e-016
lhumerus 2.43784 -11.1146 35.9419
lradius 33.4005
lwrist -11.7067
lhand -39.5644 30.8082
lfingers 7.12502
lthumb -12.5478 -299.589
rfemur -4.26896 13.7632 24.5039
rtibia 1.44625
rfoot 330.717 -26.4575
rtoes 3.05428
lfemur -9.14079 -20.6161 -10.3014
ltibia 7.5214
lfoot -31.37 -12.5691
ltoes -9.7727
912
root 6.01917 16.1962 -0.403355 133.438 -84.7318 -122.952
lowerback 8.36376 1.33655 0.637857
upperback -10.3338 1.9941 2.74856
thorax -16.4035 0.946989 2.35088
lowerneck -14.2702 -3.13675 -3.56948
upperneck 24.9194 -4.27937 1.18186
head 10.4352 -2.33218 0.429443
rclavicle -6.95746e-016 -3.97569e-015
rhumerus 3.11681 27.2414 -21.7416
rradius 38.7072
rwrist -4.94848
rhand -35.946 -14.8272
rfingers 7.12502
rthumb -9.05773 -44.6127
lclavicle -6.95746e-016 -3.97569e-015
lhumerus 3.75717 -9.73452 35.2538
lradius 33.0453
lwrist -12.0586
lhand -40.0971 31.1986
lfingers 7.12502
lthumb -13.0614 -299.23
rfemur -6.22558 9.41263 23.7563
rtibia 3.85991
rfoot 334.487 -24.461
rtoes -4.74653
lfemur -11.0228 -17.4431 -10.1707
ltibia 9.95567
lfoot -28.7862 -12.2468
ltoes -11.2793
913
root 6.05125 16.159 -0.419966 134.497 -84.8314 -123.811
lowerback 8.71261 1.0937 0.286816
upperback -10.2883 1.66279 3.14194
thorax -16.5951 0.87052 3.07116
lowerneck -14.5023 -2.87206 -3.8791
upperneck 24.9376 -3.70211 0.787362
head 10.4712 -2.13979 0.415022
rclavicle -5.46658e-016 1.11319e-014
rhumerus 5.58994 26.3789 -19.8193
rradius 39.1288
rwrist -5.90245
rhand -36.4115 -15.2281
rfingers 7.12502
rthumb -9.50691 -44.9937
lclavicle -5.46658e-016 1.11319e-014
lhumerus 4.34856 -7.78816 34.8943
lradius 32.6898
lwrist -12.8318
lhand -40.4376 31.1555
lfingers 7.12502
lthumb -13.3896 -299.295
rfemur -8.05907 5.76877 23.3363
rtibia 6.28484
rfoot 337.136 -22.6511
rtoes -12.3345
lfemur -13.0611 -14.0735 -9.89936
ltibia 12.6488
lfoot -26.1496 -12.1063
ltoes -13.1008
914
root 6.08306 16.1086 -0.43668 134.787 -84.9453 -123.883
lowerback 9.07166 0.933764 0.149676
upperback -10.2463 1.45644 3.33654
thorax -16.7816 0.811721 3.42001
lowerneck -14.3947 -2.6411 -4.3117
upperneck 24.5612 -3.30046 0.990878
head 10.3153 -1.96414 0.61846
rclavicle -1.20265e-014 3.65764e-014
rhumerus 7.29302 25.3593 -18.3876
rradius 39.6062
rwrist -6.66326
rhand -36.6826 -15.3579
rfingers 7.12502
rthumb -9.76843 -45.1114
lclavicle -1.20265e-014 3.65764e-014
lhumerus 4.97974 -6.50666 34.3447
lradius 32.6536
lwrist -13.1938
lhand -40.5896 30.9792
lfingers 7.12502
lthumb -13.5361 -299.481
rfemur -9.77053 2.60036 23.0533
rtibia 8.69265
rfoot 338.272 -20.373
rtoes -14.9006
lfemur -15.2019 -10.8495 -9.6966
ltibia 15.5607
lfoot -23.812 -12.1001
ltoes -15.245
915
root 6.11376 16.0451 -0.451518 135.759 -85.1535 -124.647
lowerback 9.46414 0.866078 0.0698067
upperback -10.2052 1.35957 3.29068
thorax -16.984 0.778535 3.43643
lowerneck -14.2167 -2.47784 -4.38477
upperneck 23.925 -3.07399 1.18166
head 10.0484 -1.83029 0.734576
rclavicle 2.6339e-015 4.49253e-014
rhumerus 8.29861 24.1913 -17.4272
rradius 39.9813
rwrist -7.17775
rhand -37.1346 -15.6024
rfingers 7.12502
rthumb -10.2045 -45.3349
lclavicle 2.6339e-015 4.49253e-014
lhumerus 5.76709 -6.11218 33.5187
lradius 32.8264
lwrist -12.9424
lhand -40.6073 31.124
lfingers 7.12502
lthumb -13.5532 -299.337
rfemur -11.3737 -0.202733 22.7116
rtibia 11.0622
rfoot 338.528 -17.9275
rtoes -16.1824
lfemur -17.328 -7.9862 -9.76025
ltibia 18.6468
lfoot -22.0038 -12.2321
ltoes -17.1643
916
root 6.1457 15.9652 -0.468953 137.095 -85.309 -125.774
lowerback 9.86202 0.839806 -0.0848986
upperback -10.1422 1.31206 3.29056
thorax -17.1706 0.781603 3.53609
lowerneck -14.4763 -2.43828 -4.46529
upperneck 23.8152 -2.97999 1.22107
head 10.0579 -1.782 0.772203
rclavicle -2.5842e-015 1.98785e-014
rhumerus 9.20825 22.84 -16.659
rradius 40.1576
rwrist -7.33373
rhand -37.3298 -16.052
rfingers 7.12502
rthumb -10.3928 -45.7751
lclavicle -2.5842e-015 1.98785e-014
lhumerus 6.4433 -5.61609 32.9497
lradius 32.9063
lwrist -12.7075
lhand -40.7007 30.736
lfingers 7.12502
lthumb -13.6432 -299.731
rfemur -13.0471 -2.60226 22.485
rtibia 13.5786
rfoot 338.491 -15.8863
rtoes -17.9164
lfemur -19.5086 -5.25201 -9.85251
ltibia 21.8603
lfoot -20.6602 -12.4826
ltoes -18.5362
917
root 6.17971 15.8693 -0.489223 137.459 -85.3282 -125.926
lowerback 10.2516 0.82329 -0.126007
upperback -10.0434 1.30486 3.34856
thorax -17.3081 0.793534 3.62787
lowerneck -14.7821 -2.40715 -4.19356
upperneck 23.7078 -2.89011 0.889198
head 10.0654 -1.74675 0.619323
rclavicle -1.0635e-014 1.03368e-014
rhumerus 10.0356 21.4368 -16.0541
rradius 40.1991
rwrist -7.17923
rhand -37.2482 -15.923
rfingers 7.12502
rthumb -10.3141 -45.6501
lclavicle -1.0635e-014 1.03368e-014
lhumerus 7.06999 -4.62901 32.7435
lradius 32.8206
lwrist -12.7623
lhand -40.8169 30.0058
lfingers 7.12502
lthumb -13.7552 -300.469
rfemur -14.8337 -4.53166 22.5266
rtibia 16.2795
rfoot 338.168 -14.3401
rtoes -17.9905
lfemur -21.8214 -2.59046 -9.84173
ltibia 25.1573
lfoot -19.8253 -12.6192
ltoes -19.8638
918
root 6.21197 15.7612 -0.506376 136.204 -85.2077 -124.501
lowerback 10.7408 0.762619 0.0878167
upperback -9.92104 1.29378 3.46304
thorax -17.4762 0.777092 3.64263
lowerneck -15.0057 -2.29003 -4.01637
upperneck 23.4609 -2.68765 0.684664
head 10.0079 -1.65145 0.543925
rclavicle 2.93207e-015 -2.46493e-014
rhumerus 10.8038 20.4174 -15.4064
rradius 40.3571
rwrist -7.198
rhand -37.0187 -15.8978
rfingers 7.12502
rthumb -10.0927 -45.6358
lclavicle 2.93207e-015 -2.46493e-014
lhumerus 7.49073 -3.67832 32.5325
lradius 32.7982
lwrist -12.8454
lhand -40.7643 30.6453
lfingers 7.12502
lthumb -13.7044 -299.826
rfemur -16.5577 -5.94818 22.8323
rtibia 18.9984
rfoot 337.574 -13.0594
rtoes -16.9068
lfemur -24.0421 -0.239442 -9.7546
ltibia 28.3415
lfoot -19.7367 -12.449
ltoes -22.0276
919
root 6.2415 15.6439 -0.516489 134.683 -85.0652 -122.818
lowerback 11.2986 0.691934 0.439909
upperback -9.80914 1.29725 3.55934
thorax -17.6999 0.748742 3.55643
lowerneck -15.3086 -2.16164 -3.8911
upperneck 23.2477 -2.4559 0.489013
head 9.97894 -1.54625 0.48344
rclavicle 7.95139e-016 -3.97569e-014
rhumerus 11.366 19.6135 -14.802
rradius 40.5979
rwrist -7.23807
rhand -36.622 -16.0569
rfingers 7.12502
rthumb -9.70991 -45.8131
lclavicle 7.95139e-016 -3.97569e-014
lhumerus 7.75741 -3.22416 32.1255
lradius 32.8631
lwrist -12.5294
lhand -40.8448 31.9931
lfingers 7.12502
lthumb -13.782 -298.483
rfemur -18.3083 -7.14123 23.2091
rtibia 21.754
rfoot 337.12 -12.163
rtoes -17.7538
lfemur -26.2019 1.81999 -9.81946
ltibia 31.4848
lfoot -20.4946 -12.1628
ltoes -25.2922
920
root 6.27191 15.519 -0.521 134.916 -85.0348 -122.783
lowerback 11.7834 0.668457 0.687385
upperback -9.72574 1.33424 3.56129
thorax -17.9128 0.73977 3.41112
lowerneck -15.6804 -2.07015 -3.70147
upperneck 23.0335 -2.28451 0.271019
head 9.96357 -1.46528 0.396129
rclavicle 1.16786e-014 -2.3059e-014
rhumerus 11.6518 18.8701 -14.2476
rradius 40.8318
rwrist -7.15692
rhand -36.547 -15.9764
rfingers 7.12502
rthumb -9.63762 -45.7359
lclavicle 1.16786e-014 -2.3059e-014
lhumerus 7.91465 -2.84984 31.7442
lradius 32.9898
lwrist -12.0514
lhand -41.1876 32.0953
lfingers 7.12502
lthumb -14.1124 -298.404
rfemur -20.3592 -8.0763 23.4364
rtibia 24.7003
rfoot 336.719 -11.7248
rtoes -20.1426
lfemur -28.6066 3.7274 -10.3529
ltibia 34.9119
lfoot -22.1539 -12.059
ltoes -29.0543
921
root 6.30627 15.3861 -0.523574 135.939 -84.9944 -123.452
lowerback 12.2558 0.669358 0.875685
upperback -9.64295 1.39727 3.58236
thorax -18.1227 0.75112 3.31412
lowerneck -15.7049 -1.94487 -3.56098
upperneck 22.3804 -2.09159 0.177704
head 9.72869 -1.35787 0.369985
rclavicle -6.16232e-015 4.37326e-014
rhumerus 11.8751 18.3446 -13.5755
rradius 41.146
rwrist -7.1434
rhand -36.8228 -16.2734
rfingers 7.12502
rthumb -9.90371 -46.0205
lclavicle -6.16232e-015 4.37326e-014
lhumerus 7.89773 -2.16792 31.5358
lradius 33.2017
lwrist -12.0225
lhand -41.2623 31.8402
lfingers 7.12502
lthumb -14.1844 -298.664
rfemur -22.6146 -8.29771 23.6655
rtibia 27.7286
rfoot 335.84 -11.3413
rtoes -20.7072
lfemur -31.2074 5.3738 -11.0875
ltibia 38.4406
lfoot -24.7084 -11.955
ltoes -32.5699
922
root 6.3421 15.2437 -0.525574 136.817 -84.7942 -123.941
lowerback 12.7482 0.689214 1.14364
upperback -9.5266 1.5142 3.66782
thorax -18.3065 0.781478 3.2306
lowerneck -15.6324 -1.6863 -3.58749
upperneck 21.5334 -1.71764 0.280968
head 9.41044 -1.15433 0.464122
rclavicle -8.84592e-015 3.4191e-014
rhumerus 12.158 17.8361 -12.9201
rradius 41.4116
rwrist -7.06555
rhand -36.7578 -16.0662
rfingers 7.12502
rthumb -9.84096 -45.8162
lclavicle -8.84592e-015 3.4191e-014
lhumerus 7.92056 -1.51978 31.2706
lradius 33.3945
lwrist -12.0615
lhand -41.1469 32.6586
lfingers 7.12502
lthumb -14.0732 -297.838
rfemur -24.9328 -7.81002 24.0708
rtibia 30.7914
rfoot 334.499 -10.8798
rtoes -19.478
lfemur -33.7901 6.73231 -11.6329
ltibia 41.8171
lfoot -27.4424 -11.6427
ltoes -35.1774
923
root 6.37555 15.0881 -0.525462 138.726 -84.543 -125.397
lowerback 13.1847 0.733443 1.36425
upperback -9.42313 1.65319 3.74487
thorax -18.4711 0.825832 3.1568
lowerneck -16.7192 -1.69895 -3.56017
upperneck 21.6517 -1.63397 0.111631
head 9.65152 -1.12401 0.403927
rclavicle -2.83268e-015 4.69132e-014
rhumerus 12.4087 17.388 -12.3245
rradius 41.672
rwrist -7.01248
rhand -36.2143 -15.0524
rfingers 7.12502
rthumb -9.31654 -44.8266
lclavicle -2.83268e-015 4.69132e-014
lhumerus 8.09646 -0.783544 31.0707
lradius 33.3747
lwrist -12.0762
lhand -41.1284 32.9776
lfingers 7.12502
lthumb -14.0554 -297.518
rfemur -27.4014 -6.93644 24.4425
rtibia 34.0542
rfoot 333.149 -10.8743
rtoes -19.2893
lfemur -36.2124 7.563 -12.0139
ltibia 44.9137
lfoot -29.61 -11.3239
ltoes -37.2485
924
root 6.41044 14.9193 -0.522904 142.032 -84.3286 -128.201
lowerback 13.6424 0.803543 1.44606
upperback -9.36923 1.79337 3.76605
thorax -18.7157 0.883406 3.09685
lowerneck -17.1702 -1.62624 -3.26863
upperneck 21.298 -1.47435 -0.296998
head 9.60216 -1.061 0.233616
rclavicle -1.49089e-016 -5.56597e-015
rhumerus 12.6012 16.9109 -11.9189
rradius 41.8034
rwrist -6.71032
rhand -35.8867 -14.3388
rfingers 7.12502
rthumb -9.00049 -44.1268
lclavicle -1.49089e-016 -5.56597e-015
lhumerus 8.24289 -0.0345367 30.9469
lradius 33.3464
lwrist -12.046
lhand -41.0403 32.5546
lfingers 7.12502
lthumb -13.9705 -297.935
rfemur -30.0909 -5.79289 24.6067
rtibia 37.5661
rfoot 331.804 -11.1707
rtoes -19.6518
lfemur -38.4308 7.77646 -12.2761
ltibia 47.6532
lfoot -31.1493 -11.1038
ltoes -39.1507
